<svg xmlns="http://www.w3.org/2000/svg" xmlns:xlink="http://www.w3.org/1999/xlink" xmlns:s="https://github.com/nturley/netlistsvg" width="876" height="621">
  <style>svg {
    stroke:#000;
    fill:none;
  }
  text {
    fill:#000;
    stroke:none;
    font-size:10px;
    font-weight: bold;
    font-family: "Courier New", monospace;
  }
  .nodelabel {
    text-anchor: middle;
  }
  .inputPortLabel {
    text-anchor: end;
  }
  .splitjoinBody {
    fill:#000;
  }</style>
  <g s:type="and" transform="translate(699,464)" s:width="30" s:height="25" id="cell_$logic_and$rtl/gshare_predictor.v:83$80">
    <s:alias val="$and"/>
    <s:alias val="$logic_and"/>
    <s:alias val="$_AND_"/>
    <path d="M0,0 L0,25 L15,25 A15 12.5 0 0 0 15,0 Z" class="cell_$logic_and$rtl/gshare_predictor.v:83$80"/>
    <g s:x="0" s:y="5" s:pid="A"/>
    <g s:x="0" s:y="20" s:pid="B"/>
    <g s:x="30" s:y="12.5" s:pid="Y"/>
  </g>
  <g s:type="generic" transform="translate(108,164)" s:width="30" s:height="40" id="cell_$procdff$19247">
    <text x="15" y="-4" class="nodelabel cell_$procdff$19247" s:attribute="ref">$adff</text>
    <rect width="30" height="60" s:generic="body" class="cell_$procdff$19247"/>
    <g transform="translate(0,10)" s:x="0" s:y="10" s:pid="in0" id="port_$procdff$19247~ARST">
      <text x="-3" y="-4" class="inputPortLabel cell_$procdff$19247">ARST</text>
    </g>
    <g transform="translate(0,30)" s:x="0" s:y="10" s:pid="in0" id="port_$procdff$19247~CLK">
      <text x="-3" y="-4" class="inputPortLabel cell_$procdff$19247">CLK</text>
    </g>
    <g transform="translate(0,50)" s:x="0" s:y="10" s:pid="in0" id="port_$procdff$19247~D">
      <text x="-3" y="-4" class="inputPortLabel cell_$procdff$19247">D</text>
    </g>
    <g transform="translate(30,10)" s:x="30" s:y="10" s:pid="out0" id="port_$procdff$19247~Q">
      <text x="5" y="-4" style="fill:#000; stroke:none" class="cell_$procdff$19247">Q</text>
    </g>
  </g>
  <g s:type="mux" transform="translate(704.6666666666666,187)" s:width="20" s:height="40" id="cell_$procmux$81">
    <s:alias val="$pmux"/>
    <s:alias val="$mux"/>
    <s:alias val="$_MUX_"/>
    <path d="M0,0 L20,10 L20,30 L0,40 Z" class="cell_$procmux$81"/>
    <g s:x="0" s:y="10" s:pid="A"/>
    <g s:x="0" s:y="30" s:pid="B"/>
    <g s:x="10" s:y="35" s:pid="S"/>
    <g s:x="20" s:y="20" s:pid="Y"/>
  </g>
  <g s:type="mux" transform="translate(764,379.5)" s:width="20" s:height="40" id="cell_$procmux$84">
    <s:alias val="$pmux"/>
    <s:alias val="$mux"/>
    <s:alias val="$_MUX_"/>
    <path d="M0,0 L20,10 L20,30 L0,40 Z" class="cell_$procmux$84"/>
    <g s:x="0" s:y="10" s:pid="A"/>
    <g s:x="0" s:y="30" s:pid="B"/>
    <g s:x="10" s:y="35" s:pid="S"/>
    <g s:x="20" s:y="20" s:pid="Y"/>
  </g>
  <g s:type="reduce_xor" transform="translate(238,154.5)" s:width="33" s:height="25" id="cell_$xor$rtl/gshare_predictor.v:57$77">
    <s:alias val="$xor"/>
    <s:alias val="$reduce_xor"/>
    <s:alias val="$_XOR_"/>
    <path d="M3,0 A30 25 0 0 1 3,25 A30 25 0 0 0 33,12.5 A30 25 0 0 0 3,0" class="cell_$xor$rtl/gshare_predictor.v:57$77"/>
    <path d="M0,0 A30 25 0 0 1 0,25" class="cell_$xor$rtl/gshare_predictor.v:57$77"/>
    <g s:x="3" s:y="5" s:pid="A"/>
    <g s:x="3" s:y="20" s:pid="B"/>
    <g s:x="33" s:y="12.5" s:pid="Y"/>
  </g>
  <g s:type="reduce_xor" transform="translate(238,277)" s:width="33" s:height="25" id="cell_$xor$rtl/gshare_predictor.v:58$78">
    <s:alias val="$xor"/>
    <s:alias val="$reduce_xor"/>
    <s:alias val="$_XOR_"/>
    <path d="M3,0 A30 25 0 0 1 3,25 A30 25 0 0 0 33,12.5 A30 25 0 0 0 3,0" class="cell_$xor$rtl/gshare_predictor.v:58$78"/>
    <path d="M0,0 A30 25 0 0 1 0,25" class="cell_$xor$rtl/gshare_predictor.v:58$78"/>
    <g s:x="3" s:y="5" s:pid="A"/>
    <g s:x="3" s:y="20" s:pid="B"/>
    <g s:x="33" s:y="12.5" s:pid="Y"/>
  </g>
  <g s:type="generic" transform="translate(400,219)" s:width="30" s:height="40" id="cell_pht0">
    <text x="15" y="-4" class="nodelabel cell_pht0" s:attribute="ref">pht_mem</text>
    <rect width="30" height="120" s:generic="body" class="cell_pht0"/>
    <g transform="translate(0,10)" s:x="0" s:y="10" s:pid="in0" id="port_pht0~areset">
      <text x="-3" y="-4" class="inputPortLabel cell_pht0">areset</text>
    </g>
    <g transform="translate(0,30)" s:x="0" s:y="10" s:pid="in0" id="port_pht0~clk">
      <text x="-3" y="-4" class="inputPortLabel cell_pht0">clk</text>
    </g>
    <g transform="translate(0,50)" s:x="0" s:y="10" s:pid="in0" id="port_pht0~raddr">
      <text x="-3" y="-4" class="inputPortLabel cell_pht0">raddr</text>
    </g>
    <g transform="translate(0,70)" s:x="0" s:y="10" s:pid="in0" id="port_pht0~train_index">
      <text x="-3" y="-4" class="inputPortLabel cell_pht0">train_index</text>
    </g>
    <g transform="translate(0,90)" s:x="0" s:y="10" s:pid="in0" id="port_pht0~train_taken">
      <text x="-3" y="-4" class="inputPortLabel cell_pht0">train_taken</text>
    </g>
    <g transform="translate(0,110)" s:x="0" s:y="10" s:pid="in0" id="port_pht0~train_valid">
      <text x="-3" y="-4" class="inputPortLabel cell_pht0">train_valid</text>
    </g>
    <g transform="translate(30,10)" s:x="30" s:y="10" s:pid="out0" id="port_pht0~rdata">
      <text x="5" y="-4" style="fill:#000; stroke:none" class="cell_pht0">rdata</text>
    </g>
  </g>
  <g s:type="inputExt" transform="translate(12,184.5)" s:width="30" s:height="20" id="cell_clk">
    <text x="15" y="-4" class="nodelabel cell_clk" s:attribute="ref">clk</text>
    <s:alias val="$_inputExt_"/>
    <path d="M0,0 L0,20 L15,20 L30,10 L15,0 Z" class="cell_clk"/>
    <g s:x="28" s:y="10" s:pid="Y"/>
  </g>
  <g s:type="inputExt" transform="translate(12,57)" s:width="30" s:height="20" id="cell_areset">
    <text x="15" y="-4" class="nodelabel cell_areset" s:attribute="ref">areset</text>
    <s:alias val="$_inputExt_"/>
    <path d="M0,0 L0,20 L15,20 L30,10 L15,0 Z" class="cell_areset"/>
    <g s:x="28" s:y="10" s:pid="Y"/>
  </g>
  <g s:type="inputExt" transform="translate(556,327)" s:width="30" s:height="20" id="cell_predict_valid">
    <text x="15" y="-4" class="nodelabel cell_predict_valid" s:attribute="ref">predict_valid</text>
    <s:alias val="$_inputExt_"/>
    <path d="M0,0 L0,20 L15,20 L30,10 L15,0 Z" class="cell_predict_valid"/>
    <g s:x="28" s:y="10" s:pid="Y"/>
  </g>
  <g s:type="inputExt" transform="translate(108,99)" s:width="30" s:height="20" id="cell_predict_pc">
    <text x="15" y="-4" class="nodelabel cell_predict_pc" s:attribute="ref">predict_pc</text>
    <s:alias val="$_inputExt_"/>
    <path d="M0,0 L0,20 L15,20 L30,10 L15,0 Z" class="cell_predict_pc"/>
    <g s:x="28" s:y="10" s:pid="Y"/>
  </g>
  <g s:type="outputExt" transform="translate(764,524)" s:width="30" s:height="20" id="cell_predict_taken">
    <text x="15" y="-4" class="nodelabel cell_predict_taken" s:attribute="ref">predict_taken</text>
    <s:alias val="$_outputExt_"/>
    <path d="M30,0 L30,20 L15,20 L0,10 L15,0 Z" class="cell_predict_taken"/>
    <g s:x="0" s:y="10" s:pid="A"/>
  </g>
  <g s:type="outputExt" transform="translate(764,589)" s:width="30" s:height="20" id="cell_predict_history">
    <text x="15" y="-4" class="nodelabel cell_predict_history" s:attribute="ref">predict_history</text>
    <s:alias val="$_outputExt_"/>
    <path d="M30,0 L30,20 L15,20 L0,10 L15,0 Z" class="cell_predict_history"/>
    <g s:x="0" s:y="10" s:pid="A"/>
  </g>
  <g s:type="inputExt" transform="translate(227,412)" s:width="30" s:height="20" id="cell_train_valid">
    <text x="15" y="-4" class="nodelabel cell_train_valid" s:attribute="ref">train_valid</text>
    <s:alias val="$_inputExt_"/>
    <path d="M0,0 L0,20 L15,20 L30,10 L15,0 Z" class="cell_train_valid"/>
    <g s:x="28" s:y="10" s:pid="Y"/>
  </g>
  <g s:type="inputExt" transform="translate(227,347)" s:width="30" s:height="20" id="cell_train_taken">
    <text x="15" y="-4" class="nodelabel cell_train_taken" s:attribute="ref">train_taken</text>
    <s:alias val="$_inputExt_"/>
    <path d="M0,0 L0,20 L15,20 L30,10 L15,0 Z" class="cell_train_taken"/>
    <g s:x="28" s:y="10" s:pid="Y"/>
  </g>
  <g s:type="inputExt" transform="translate(556,474)" s:width="30" s:height="20" id="cell_train_mispredicted">
    <text x="15" y="-4" class="nodelabel cell_train_mispredicted" s:attribute="ref">train_mispredicted</text>
    <s:alias val="$_inputExt_"/>
    <path d="M0,0 L0,20 L15,20 L30,10 L15,0 Z" class="cell_train_mispredicted"/>
    <g s:x="28" s:y="10" s:pid="Y"/>
  </g>
  <g s:type="inputExt" transform="translate(108,432)" s:width="30" s:height="20" id="cell_train_history">
    <text x="15" y="-4" class="nodelabel cell_train_history" s:attribute="ref">train_history</text>
    <s:alias val="$_inputExt_"/>
    <path d="M0,0 L0,20 L15,20 L30,10 L15,0 Z" class="cell_train_history"/>
    <g s:x="28" s:y="10" s:pid="Y"/>
  </g>
  <g s:type="inputExt" transform="translate(108,272)" s:width="30" s:height="20" id="cell_train_pc">
    <text x="15" y="-4" class="nodelabel cell_train_pc" s:attribute="ref">train_pc</text>
    <s:alias val="$_inputExt_"/>
    <path d="M0,0 L0,20 L15,20 L30,10 L15,0 Z" class="cell_train_pc"/>
    <g s:x="28" s:y="10" s:pid="Y"/>
  </g>
  <g s:type="join" transform="translate(593,196.5)" s:width="4" s:height="40" id="cell_$join$,12,13,14,15,16,17,18,">
    <rect width="5" height="40" class="splitjoinBody" s:generic="body"/>
    <s:alias val="$_join_"/>
    <g s:x="5" s:y="20" s:pid="out"/>
    <g transform="translate(0,10)" s:x="0" s:y="10" s:pid="in0">
      <text x="-3" y="-4" class="inputPortLabel">0</text>
    </g>
    <g transform="translate(0,30)" s:x="0" s:y="10" s:pid="in0">
      <text x="-3" y="-4" class="inputPortLabel">1:6</text>
    </g>
  </g>
  <g s:type="join" transform="translate(710,389)" s:width="4" s:height="40" id="cell_$join$,21,23,24,25,26,27,28,">
    <rect width="5" height="40" class="splitjoinBody" s:generic="body"/>
    <s:alias val="$_join_"/>
    <g s:x="5" s:y="20" s:pid="out"/>
    <g transform="translate(0,10)" s:x="0" s:y="10" s:pid="in0">
      <text x="-3" y="-4" class="inputPortLabel">0</text>
    </g>
    <g transform="translate(0,30)" s:x="0" s:y="10" s:pid="in0">
      <text x="-3" y="-4" class="inputPortLabel">1:6</text>
    </g>
  </g>
  <g s:type="split" transform="translate(497,196.5)" s:width="5" s:height="40" id="cell_$split$,66,12,">
    <rect width="5" height="20" class="splitjoinBody" s:generic="body"/>
    <s:alias val="$_split_"/>
    <g s:x="0" s:y="20" s:pid="in"/>
    <g transform="translate(4,10)" s:x="4" s:y="10" s:pid="out0">
      <text x="5" y="-4">1</text>
    </g>
  </g>
  <g s:type="split" transform="translate(497,23)" s:width="5" s:height="40" id="cell_$split$,13,14,15,16,17,18,19,">
    <rect width="5" height="20" class="splitjoinBody" s:generic="body"/>
    <s:alias val="$_split_"/>
    <g s:x="0" s:y="20" s:pid="in"/>
    <g transform="translate(4,10)" s:x="4" s:y="10" s:pid="out0">
      <text x="5" y="-4">0:5</text>
    </g>
  </g>
  <g s:type="split" transform="translate(581,409)" s:width="5" s:height="40" id="cell_$split$,23,24,25,26,27,28,29,">
    <rect width="5" height="20" class="splitjoinBody" s:generic="body"/>
    <s:alias val="$_split_"/>
    <g s:x="0" s:y="20" s:pid="in"/>
    <g transform="translate(4,10)" s:x="4" s:y="10" s:pid="out0">
      <text x="5" y="-4">0:5</text>
    </g>
  </g>
  <line x1="255" x2="313" y1="422" y2="422" class="net_20"/>
  <line x1="313" x2="313" y1="422" y2="453" class="net_20"/>
  <line x1="313" x2="674" y1="453" y2="453" class="net_20"/>
  <line x1="674" x2="674" y1="453" y2="469" class="net_20"/>
  <circle cx="313" cy="422" r="2" style="fill:#000" class="net_20"/>
  <line x1="674" x2="699" y1="469" y2="469" class="net_20"/>
  <line x1="255" x2="313" y1="422" y2="422" class="net_20"/>
  <line x1="313" x2="313" y1="422" y2="329.5" class="net_20"/>
  <line x1="313" x2="400" y1="329.5" y2="329.5" class="net_20"/>
  <line x1="584" x2="699" y1="484" y2="484" class="net_22"/>
  <line x1="40" x2="68" y1="67" y2="67" class="net_3"/>
  <line x1="68" x2="68" y1="67" y2="174.5" class="net_3"/>
  <circle cx="68" cy="67" r="2" style="fill:#000" class="net_3"/>
  <line x1="68" x2="108" y1="174.5" y2="174.5" class="net_3"/>
  <line x1="40" x2="323" y1="67" y2="67" class="net_3"/>
  <line x1="323" x2="323" y1="67" y2="229.5" class="net_3"/>
  <line x1="323" x2="400" y1="229.5" y2="229.5" class="net_3"/>
  <line x1="40" x2="108" y1="194.5" y2="194.5" class="net_2"/>
  <line x1="40" x2="58" y1="194.5" y2="194.5" class="net_2"/>
  <line x1="58" x2="58" y1="194.5" y2="78" class="net_2"/>
  <line x1="58" x2="313" y1="78" y2="78" class="net_2"/>
  <line x1="313" x2="313" y1="78" y2="249.5" class="net_2"/>
  <circle cx="58" cy="194.5" r="2" style="fill:#000" class="net_2"/>
  <line x1="313" x2="400" y1="249.5" y2="249.5" class="net_2"/>
  <line x1="784" x2="864" y1="399.5" y2="399.5" class="net_38,39,40,41,42,43,44"/>
  <line x1="864" x2="864" y1="399.5" y2="504" class="net_38,39,40,41,42,43,44"/>
  <line x1="864" x2="68" y1="504" y2="504" class="net_38,39,40,41,42,43,44"/>
  <line x1="68" x2="68" y1="504" y2="214.5" class="net_38,39,40,41,42,43,44"/>
  <line x1="68" x2="108" y1="214.5" y2="214.5" class="net_38,39,40,41,42,43,44"/>
  <line x1="139" x2="202" y1="174.5" y2="174.5" class="net_13,14,15,16,17,18,19"/>
  <line x1="202" x2="202" y1="174.5" y2="56" class="net_13,14,15,16,17,18,19"/>
  <line x1="202" x2="472" y1="56" y2="56" class="net_13,14,15,16,17,18,19"/>
  <line x1="472" x2="472" y1="56" y2="12" class="net_13,14,15,16,17,18,19"/>
  <line x1="472" x2="674" y1="12" y2="12" class="net_13,14,15,16,17,18,19"/>
  <line x1="674" x2="674" y1="12" y2="197" class="net_13,14,15,16,17,18,19"/>
  <circle cx="202" cy="174.5" r="2" style="fill:#000" class="net_13,14,15,16,17,18,19"/>
  <circle cx="472" cy="56" r="2" style="fill:#000" class="net_13,14,15,16,17,18,19"/>
  <line x1="674" x2="704.6666666666666" y1="197" y2="197" class="net_13,14,15,16,17,18,19"/>
  <line x1="139" x2="241" y1="174.5" y2="174.5" class="net_13,14,15,16,17,18,19"/>
  <line x1="139" x2="202" y1="174.5" y2="174.5" class="net_13,14,15,16,17,18,19"/>
  <line x1="202" x2="202" y1="174.5" y2="599" class="net_13,14,15,16,17,18,19"/>
  <line x1="202" x2="764" y1="599" y2="599" class="net_13,14,15,16,17,18,19"/>
  <line x1="139" x2="202" y1="174.5" y2="174.5" class="net_13,14,15,16,17,18,19"/>
  <line x1="202" x2="202" y1="174.5" y2="56" class="net_13,14,15,16,17,18,19"/>
  <line x1="202" x2="497.5" y1="56" y2="56" class="net_13,14,15,16,17,18,19"/>
  <line x1="497.5" x2="497.5" y1="56" y2="44" class="net_13,14,15,16,17,18,19"/>
  <line x1="599" x2="704.6666666666666" y1="217" y2="217" class="net_12,13,14,15,16,17,18"/>
  <line x1="584" x2="714.6666666666666" y1="337" y2="337" class="net_4"/>
  <line x1="714.6666666666666" x2="714.6666666666666" y1="337" y2="222" class="net_4"/>
  <line x1="724.6666666666666" x2="739" y1="207" y2="207" class="net_45,46,47,48,49,50,51"/>
  <line x1="739" x2="739" y1="207" y2="389.5" class="net_45,46,47,48,49,50,51"/>
  <line x1="739" x2="764" y1="389.5" y2="389.5" class="net_45,46,47,48,49,50,51"/>
  <line x1="716" x2="764" y1="409.5" y2="409.5" class="net_21,23,24,25,26,27,28"/>
  <line x1="729" x2="774" y1="476.5" y2="476.5" class="net_37"/>
  <line x1="774" x2="774" y1="476.5" y2="414.5" class="net_37"/>
  <line x1="136" x2="212" y1="109" y2="109" class="net_5,6,7,8,9,10,11"/>
  <line x1="212" x2="212" y1="109" y2="159.5" class="net_5,6,7,8,9,10,11"/>
  <line x1="212" x2="241" y1="159.5" y2="159.5" class="net_5,6,7,8,9,10,11"/>
  <line x1="136" x2="241" y1="282" y2="282" class="net_30,31,32,33,34,35,36"/>
  <line x1="136" x2="212" y1="442" y2="442" class="net_23,24,25,26,27,28,29"/>
  <line x1="212" x2="212" y1="442" y2="297" class="net_23,24,25,26,27,28,29"/>
  <circle cx="212" cy="442" r="2" style="fill:#000" class="net_23,24,25,26,27,28,29"/>
  <line x1="212" x2="241" y1="297" y2="297" class="net_23,24,25,26,27,28,29"/>
  <line x1="136" x2="581.5" y1="442" y2="442" class="net_23,24,25,26,27,28,29"/>
  <line x1="581.5" x2="581.5" y1="442" y2="430" class="net_23,24,25,26,27,28,29"/>
  <line x1="271" x2="303" y1="167" y2="167" class="net_52,53,54,55,56,57,58"/>
  <line x1="303" x2="303" y1="167" y2="269.5" class="net_52,53,54,55,56,57,58"/>
  <line x1="303" x2="400" y1="269.5" y2="269.5" class="net_52,53,54,55,56,57,58"/>
  <line x1="271" x2="400" y1="289.5" y2="289.5" class="net_59,60,61,62,63,64,65"/>
  <line x1="255" x2="303" y1="357" y2="357" class="net_21"/>
  <line x1="303" x2="303" y1="357" y2="309.5" class="net_21"/>
  <circle cx="303" cy="357" r="2" style="fill:#000" class="net_21"/>
  <line x1="303" x2="400" y1="309.5" y2="309.5" class="net_21"/>
  <line x1="255" x2="674" y1="357" y2="357" class="net_21"/>
  <line x1="674" x2="674" y1="357" y2="399.5" class="net_21"/>
  <line x1="674" x2="710" y1="399.5" y2="399.5" class="net_21"/>
  <line x1="502" x2="531" y1="207" y2="207" class="net_12"/>
  <line x1="531" x2="531" y1="207" y2="534" class="net_12"/>
  <circle cx="531" cy="207" r="2" style="fill:#000" class="net_12"/>
  <line x1="531" x2="764" y1="534" y2="534" class="net_12"/>
  <line x1="502" x2="593" y1="207" y2="207" class="net_12"/>
  <line x1="502" x2="541" y1="33.5" y2="33.5" class="net_13,14,15,16,17,18"/>
  <line x1="541" x2="541" y1="33.5" y2="227" class="net_13,14,15,16,17,18"/>
  <line x1="541" x2="593" y1="227" y2="227" class="net_13,14,15,16,17,18"/>
  <line x1="586" x2="710" y1="419.5" y2="419.5" class="net_23,24,25,26,27,28"/>
  <line x1="431" x2="497.5" y1="229.5" y2="229.5" class="net_66,12"/>
  <line x1="497.5" x2="497.5" y1="229.5" y2="217.5" class="net_66,12"/>
</svg>
